<svg width="256" height="150" viewBox="0 0 256 150" fill="none" xmlns="http://www.w3.org/2000/svg">
<path d="M256 145.359C246.688 147.727 240.928 145.463 235.76 137.703L199.008 86.8551L193.696 79.8151L150.776 137.871C145.872 144.855 140.728 147.895 131.576 145.423L186.536 71.6471L135.368 5.00709C144.168 3.29509 150.248 4.16709 155.648 12.0471L193.768 63.5271L232.168 12.3271C237.088 5.34309 242.376 2.68709 251.208 5.26309L231.368 31.5671L204.488 66.5671C201.288 70.5671 201.728 73.3031 204.672 77.1671L256 145.359ZM0.064 70.4151L4.56 48.3031C16.8 4.54309 66.96 -13.6409 101.552 13.3991C121.768 29.3031 126.792 51.7991 125.792 76.9991H11.84C10.128 122.359 42.776 149.735 84.4 135.767C99 130.863 107.6 119.431 111.904 105.127C114.088 97.9591 117.704 96.8391 124.44 98.8871C121 116.775 113.24 131.719 96.84 141.071C72.336 155.071 37.36 150.543 18.96 131.087C8 119.799 3.472 105.495 1.44 90.1991C1.12 87.6711 0.48 85.2631 0 82.8391C0.0426667 78.7004 0.064 74.5618 0.064 70.4231V70.4151ZM12.048 67.3751H115.024C114.352 34.5751 93.928 11.2791 66.016 11.0791C35.376 10.8391 13.376 33.5831 12.048 67.3751V67.3751Z" fill="#828282"/>
</svg>
